<svg xmlns="http://www.w3.org/2000/svg" xmlns:lucid="lucid" width="1800" height="1640"><g lucid:page-tab-id="0_0" stroke="#000" stroke-opacity="0"><path d="M1731.6 1143.08H68.4c-37.8 0-68.4 26.24-68.4 60.68v373.92c0 36.08 30.6 62.32 68.4 62.32h1663.2c37.8 0 68.4-26.24 68.4-62.32v-373.92c0-34.44-28.8-60.68-68.4-60.68zM151.2 1579.32c-34.2 0-64.8-27.88-64.8-59.04s30.6-57.4 64.8-57.4c36 0 64.8 26.24 64.8 57.4s-30.6 59.04-64.8 59.04zm1515.6-24.6h-363.6c-14.4 0-21.6-6.56-21.6-18.04s7.2-19.68 21.6-19.68h363.6c12.6 0 21.6 8.2 21.6 19.68s-9 18.04-21.6 18.04zm0-60.68h-363.6c-14.4 0-21.6-8.2-21.6-19.68s7.2-19.68 21.6-19.68h363.6c12.6 0 21.6 8.2 21.6 19.68s-9 19.68-21.6 19.68zm0-62.32h-363.6c-14.4 0-21.6-6.56-21.6-19.68 0-11.48 7.2-18.04 21.6-18.04h363.6c12.6 0 21.6 6.56 21.6 18.04s-9 19.68-21.6 19.68zM1731.6 570.72H68.4C30.6 570.72 0 598.6 0 633.04v373.92c0 34.44 30.6 62.32 68.4 62.32h1663.2c37.8 0 68.4-27.88 68.4-62.32V633.04c0-34.44-28.8-62.32-68.4-62.32zM151.2 1006.96c-34.2 0-64.8-26.24-64.8-57.4s30.6-57.4 64.8-57.4c36 0 64.8 26.24 64.8 57.4s-30.6 57.4-64.8 57.4zM1666.8 984h-363.6c-14.4 0-21.6-6.56-21.6-19.68 0-11.48 7.2-18.04 21.6-18.04h363.6c12.6 0 21.6 6.56 21.6 18.04s-9 19.68-21.6 19.68zm0-60.68h-363.6c-14.4 0-21.6-8.2-21.6-19.68s7.2-19.68 21.6-19.68h363.6c12.6 0 21.6 8.2 21.6 19.68s-9 19.68-21.6 19.68zm0-62.32h-363.6c-14.4 0-21.6-8.2-21.6-19.68s7.2-19.68 21.6-19.68h363.6c12.6 0 21.6 8.2 21.6 19.68s-9 19.68-21.6 19.68zM1731.6 0H68.4C30.6 0 0 26.24 0 62.32v373.92c0 34.44 30.6 60.68 68.4 60.68h1663.2c37.8 0 68.4-26.24 68.4-60.68V62.32C1800 27.88 1771.2 0 1731.6 0zM151.2 436.24c-34.2 0-64.8-26.24-64.8-57.4s30.6-59.04 64.8-59.04c36 0 64.8 27.88 64.8 59.04s-30.6 57.4-64.8 57.4zm1515.6-22.96h-363.6c-14.4 0-21.6-8.2-21.6-19.68s7.2-19.68 21.6-19.68h363.6c12.6 0 21.6 8.2 21.6 19.68s-9 19.68-21.6 19.68zm0-62.32h-363.6c-14.4 0-21.6-6.56-21.6-19.68 0-11.48 7.2-18.04 21.6-18.04h363.6c12.6 0 21.6 6.56 21.6 18.04 0 13.12-9 19.68-21.6 19.68zm0-60.68h-363.6c-14.4 0-21.6-8.2-21.6-19.68s7.2-19.68 21.6-19.68h363.6c12.6 0 21.6 8.2 21.6 19.68 0 8.2-9 19.68-21.6 19.68z"/></g></svg>